<svg xmlns="http://www.w3.org/2000/svg" viewBox="0 0 32 40" x="0px" y="0px"><title>new window, pop up</title><g data-name="new window, pop up"><path d="M30,16v9a5,5,0,0,1-5,5H7a5,5,0,0,1-5-5V7A5,5,0,0,1,7,2h9a1,1,0,0,1,0,2H7A3,3,0,0,0,4,7V25a3,3,0,0,0,3,3H25a3,3,0,0,0,3-3V16a1,1,0,0,1,2,0ZM22,4h4.59L15.29,15.29a1,1,0,0,0,0,1.42,1,1,0,0,0,1.42,0L28,5.42,28,10a1,1,0,0,0,1,1h0a1,1,0,0,0,1-1l0-7a1,1,0,0,0-.29-.71A1,1,0,0,0,29,2H22a1,1,0,0,0,0,2Z"/></g><text x="0" y="47" fill="#000000" font-size="5px" font-weight="bold" font-family="'Helvetica Neue', Helvetica, Arial-Unicode, Arial, Sans-serif">Created by MHD AZMI DWIPRANATA</text><text x="0" y="52" fill="#000000" font-size="5px" font-weight="bold" font-family="'Helvetica Neue', Helvetica, Arial-Unicode, Arial, Sans-serif">from the Noun Project</text></svg>